<svg xmlns="http://www.w3.org/2000/svg" width="15" height="20" viewBox="0 0 15 20">
  <path id="Bell" d="M7.5,20a2.386,2.386,0,0,1-2.354-2.411c0-.044,0-.09,0-.145H1.515A1.536,1.536,0,0,1,0,15.891V10.733a7.813,7.813,0,0,1,1.679-4.84,7.516,7.516,0,0,1,4.2-2.663,2.071,2.071,0,0,1-.37-1.185,2,2,0,1,1,3.99,0,2.064,2.064,0,0,1-.37,1.185,7.516,7.516,0,0,1,4.2,2.663A7.814,7.814,0,0,1,15,10.733v5.159a1.536,1.536,0,0,1-1.516,1.552H9.849c0,.055,0,.1,0,.145A2.385,2.385,0,0,1,7.5,20ZM6.19,17.444h0c0,.052-.007.1-.007.145a1.318,1.318,0,1,0,2.634,0c0-.045,0-.093-.007-.145H6.19ZM7.5,4.109a6.553,6.553,0,0,0-6.465,6.624v5.159a.486.486,0,0,0,.479.492h11.97a.487.487,0,0,0,.48-.492V10.733A6.553,6.553,0,0,0,7.5,4.109Z" fill="#626262"/>
</svg>
