<svg xmlns="http://www.w3.org/2000/svg" width="22" height="23" viewBox="0 0 22 23">
  <path id="Call" d="M17.8,23a18.16,18.16,0,0,1-4.4-.548A17.748,17.748,0,0,1,.307,8.606,16.693,16.693,0,0,1,0,5.342,17.485,17.485,0,0,1,.447,1.388,1.838,1.838,0,0,1,2.239,0H5.976A3.012,3.012,0,0,1,9,3V5.342a.65.65,0,0,1-.4.6L5.985,7.051a.5.5,0,0,0-.319.534,12.328,12.328,0,0,0,8.676,9.521.589.589,0,0,0,.162.023.533.533,0,0,0,.5-.314l1.012-2.345a.659.659,0,0,1,.6-.394H18.98a3.012,3.012,0,0,1,3.02,3V21a1.827,1.827,0,0,1-1.538,1.8A18.178,18.178,0,0,1,17.8,23ZM2.239,1.3a.519.519,0,0,0-.514.377,16.177,16.177,0,0,0-.413,3.663A15.358,15.358,0,0,0,1.6,8.36a16.44,16.44,0,0,0,12.119,12.83,16.89,16.89,0,0,0,4.092.506,16.747,16.747,0,0,0,2.46-.182A.513.513,0,0,0,20.687,21V17.071a1.7,1.7,0,0,0-1.707-1.695H17.049l-.842,1.949a1.85,1.85,0,0,1-1.706,1.1,1.888,1.888,0,0,1-.523-.074A13.641,13.641,0,0,1,4.376,7.82,1.807,1.807,0,0,1,5.468,5.855l2.217-.942V3A1.7,1.7,0,0,0,5.976,1.3Z" fill="#ff7643"/>
</svg>
