<svg xmlns="http://www.w3.org/2000/svg" width="20" height="16" viewBox="0 0 20 16">
  <path id="Camera_Icon" data-name="Camera Icon" d="M17.337,16H2.663A2.637,2.637,0,0,1,0,13.4V5.423a2.636,2.636,0,0,1,2.663-2.6H4.75A.486.486,0,0,0,5.2,2.508L5.749,1.04A1.614,1.614,0,0,1,7.266,0h5.468a1.615,1.615,0,0,1,1.517,1.04L14.8,2.509a.486.486,0,0,0,.453.311h2.087A2.636,2.636,0,0,1,20,5.423V13.4A2.637,2.637,0,0,1,17.337,16ZM2.663,3.927a1.516,1.516,0,0,0-1.531,1.5V13.4a1.516,1.516,0,0,0,1.531,1.5H17.337a1.516,1.516,0,0,0,1.531-1.5V5.423a1.516,1.516,0,0,0-1.531-1.5H15.25a1.619,1.619,0,0,1-1.516-1.039l-.546-1.47a.482.482,0,0,0-.454-.311H7.266a.482.482,0,0,0-.453.311l-.547,1.47A1.619,1.619,0,0,1,4.75,3.927ZM10,13.122A3.831,3.831,0,0,1,6.132,9.339a3.869,3.869,0,0,1,7.736,0A3.831,3.831,0,0,1,10,13.122Zm0-6.46a2.677,2.677,0,1,0,2.736,2.678A2.71,2.71,0,0,0,10,6.662Z" fill="#757575"/>
</svg>
