<svg xmlns="http://www.w3.org/2000/svg" width="22" height="18" viewBox="0 0 22 18">
  <path id="Cart_Icon" data-name="Cart Icon" d="M17.131,18a1.333,1.333,0,1,1,1.322-1.333A1.33,1.33,0,0,1,17.131,18Zm-6.5,0a1.333,1.333,0,1,1,1.323-1.333A1.329,1.329,0,0,1,10.633,18Zm6.152-4.086H10.512a3.538,3.538,0,0,1-3.339-2.392L4.843,4.764l0-.014,0-.013L3.824,1.818a.834.834,0,0,0-.787-.563H.622A.627.627,0,0,1,.622,0H3.038A2.081,2.081,0,0,1,5,1.4l.869,2.512h14.45a1.677,1.677,0,0,1,1.364.7,1.7,1.7,0,0,1,.23,1.528l-1.778,5.337A3.532,3.532,0,0,1,16.785,13.914ZM6.3,5.171h0L8.349,11.11a2.29,2.29,0,0,0,2.163,1.55h6.273a2.288,2.288,0,0,0,2.17-1.573l1.778-5.335a.439.439,0,0,0-.059-.4.429.429,0,0,0-.354-.182H6.3Z" fill="#7c7c7c"/>
</svg>
