<svg xmlns="http://www.w3.org/2000/svg" width="22" height="20" viewBox="0 0 22 20">
  <path id="Chat_bubble_Icon" data-name="Chat bubble Icon" d="M16.65,20a.856.856,0,0,1-.606-.249l-4.011-2.956a.593.593,0,0,0-.414-.2H8.4A8.357,8.357,0,0,1,0,8.3,8.182,8.182,0,0,1,2.453,2.434,8.453,8.453,0,0,1,8.4,0h4.872a8.967,8.967,0,0,1,6.347,2.663A8.01,8.01,0,0,1,22,8.526a8.256,8.256,0,0,1-4.2,6.954.522.522,0,0,0-.292.443v3.23a.842.842,0,0,1-.529.782A.875.875,0,0,1,16.65,20ZM8.4,1.23A7.21,7.21,0,0,0,3.331,3.306a6.973,6.973,0,0,0-2.085,5A7.117,7.117,0,0,0,8.4,15.363h3.217a1.735,1.735,0,0,1,1.228.5l3.416,2.517V15.923a1.732,1.732,0,0,1,.922-1.512,7.03,7.03,0,0,0,3.569-5.917,6.8,6.8,0,0,0-2.025-4.973A7.71,7.71,0,0,0,13.274,1.23Zm7.23,8.248a1.3,1.3,0,1,1,1.316-1.3A1.311,1.311,0,0,1,15.632,9.478ZM11,9.478a1.3,1.3,0,1,1,1.318-1.3A1.31,1.31,0,0,1,11,9.478Zm-4.63,0a1.3,1.3,0,1,1,1.317-1.3A1.31,1.31,0,0,1,6.369,9.478Z" fill="#b6b6b6"/>
</svg>
