<svg xmlns="http://www.w3.org/2000/svg" width="22" height="20" viewBox="0 0 22 20">
  <path id="Heart_Icon" data-name="Heart Icon" d="M11,20a1.636,1.636,0,0,1-1.174-.49L1.963,11.56a6.826,6.826,0,0,1,0-9.58A6.66,6.66,0,0,1,11,1.573a6.66,6.66,0,0,1,9.038.407,6.831,6.831,0,0,1,0,9.58l-7.864,7.949A1.642,1.642,0,0,1,11,20ZM6.7,1.257a5.4,5.4,0,0,0-3.86,1.614,5.561,5.561,0,0,0,0,7.8l7.864,7.948a.414.414,0,0,0,.589,0l7.864-7.948a5.559,5.559,0,0,0,0-7.8,5.422,5.422,0,0,0-7.717,0,.619.619,0,0,1-.88,0A5.394,5.394,0,0,0,6.7,1.257Z" transform="translate(0 0)" fill="#b6b6b6"/>
</svg>
