<svg id="receipt" xmlns="http://www.w3.org/2000/svg" xmlns:xlink="http://www.w3.org/1999/xlink" width="16" height="20" viewBox="0 0 16 20">
  <defs>
    <linearGradient id="linear-gradient" x2="1" y2="1" gradientUnits="objectBoundingBox">
      <stop offset="0" stop-color="#ffa53e"/>
      <stop offset="1" stop-color="#ff7643"/>
    </linearGradient>
  </defs>
  <path id="Icon_color" data-name="Icon color" d="M2.82,20H2.53a.474.474,0,0,1-.35-.149L.29,17.97A1.05,1.05,0,0,1,0,17.26V1A1,1,0,0,1,1,0H15a1,1,0,0,1,1,1V17.3a1,1,0,0,1-.29.7L13.8,19.81a.468.468,0,0,1-.35.15h-.29a.471.471,0,0,1-.35-.15L11,18a.51.51,0,0,0-.68,0L8.51,19.81a.471.471,0,0,1-.35.15H7.87a.468.468,0,0,1-.349-.15L5.71,18A.509.509,0,0,0,5,18L3.17,19.85A.471.471,0,0,1,2.826,20Z" fill="url(#linear-gradient)"/>
</svg>
