<svg xmlns="http://www.w3.org/2000/svg" width="22" height="21" viewBox="0 0 22 21">
  <path id="Shop_Icon" data-name="Shop Icon" d="M17.506,21H4.5a3.217,3.217,0,0,1-3.224-3.2V10.888A3.169,3.169,0,0,1,0,8.352L.946,2.677A3.206,3.206,0,0,1,4.126,0H17.882a3.208,3.208,0,0,1,3.181,2.677L22,8.248a3.276,3.276,0,0,1-1.271,2.632V17.8A3.217,3.217,0,0,1,17.506,21ZM8.4,14.592h5.2a.622.622,0,0,1,.623.619v4.551h3.279A1.974,1.974,0,0,0,19.483,17.8V11.47a3.175,3.175,0,0,1-.692.081,3.24,3.24,0,0,1-2.6-1.309,3.227,3.227,0,0,1-5.191,0,3.226,3.226,0,0,1-5.19,0A3.193,3.193,0,0,1,2.524,11.47V17.8A1.974,1.974,0,0,0,4.5,19.762H7.781V15.211A.622.622,0,0,1,8.4,14.592Zm.622,1.239v3.931h3.956V15.831Zm7.169-8.1a.622.622,0,0,1,.622.62A1.969,1.969,0,0,0,19.841,10L19.854,10l.019-.01a1.953,1.953,0,0,0,.891-1.635l-.931-5.471a1.967,1.967,0,0,0-1.951-1.642H4.126A1.965,1.965,0,0,0,2.175,2.88L1.237,8.454a1.89,1.89,0,0,0,.882,1.53.421.421,0,0,1,.063.032l.02.012a2.007,2.007,0,0,0,1.016.283A1.968,1.968,0,0,0,5.191,8.352a.622.622,0,0,1,1.245,0,1.973,1.973,0,0,0,3.946,0,.622.622,0,0,1,1.245,0,1.973,1.973,0,0,0,3.946,0A.622.622,0,0,1,16.2,7.732Z" transform="translate(0)" fill="#b6b6b6"/>
</svg>
