<svg xmlns="http://www.w3.org/2000/svg" width="24" height="22" viewBox="0 0 24 22">
  <path id="Star_Icon_5" data-name="Star Icon 5" d="M23.483,10.092a1.767,1.767,0,0,0,.42-1.824,1.882,1.882,0,0,0-1.461-1.24L16.851,5.971a.575.575,0,0,1-.388-.269L13.685.945a1.975,1.975,0,0,0-3.37,0L7.538,5.7a.575.575,0,0,1-.389.269L1.559,7.027A1.88,1.88,0,0,0,.1,8.268a1.765,1.765,0,0,0,.42,1.824l3.874,4a.532.532,0,0,1,.147.436l-.676,5.41a1.789,1.789,0,0,0,.782,1.712A1.973,1.973,0,0,0,5.773,22a2.019,2.019,0,0,0,.815-.173l5.172-2.288a.6.6,0,0,1,.48,0l5.173,2.288a1.981,1.981,0,0,0,1.942-.182,1.79,1.79,0,0,0,.783-1.712l-.677-5.409a.527.527,0,0,1,.149-.437Z" fill="#dbdee4"/>
</svg>
