<svg xmlns="http://www.w3.org/2000/svg" xmlns:xlink="http://www.w3.org/1999/xlink" width="13" height="12" viewBox="0 0 13 12">
  <defs>
    <linearGradient id="linear-gradient" x2="1" y2="1" gradientUnits="objectBoundingBox">
      <stop offset="0" stop-color="#ffe431"/>
      <stop offset="1" stop-color="#ffc416"/>
    </linearGradient>
  </defs>
  <path id="Star_Icon" data-name="Star Icon" d="M12.72,5.5a.969.969,0,0,0,.227-1,1.021,1.021,0,0,0-.792-.676L9.128,3.257a.312.312,0,0,1-.21-.147L7.413.515a1.066,1.066,0,0,0-1.825,0L4.083,3.11a.311.311,0,0,1-.211.147L.844,3.833a1.02,1.02,0,0,0-.792.676.967.967,0,0,0,.227,1l2.1,2.179a.291.291,0,0,1,.08.238l-.366,2.951a.978.978,0,0,0,.424.934A1.063,1.063,0,0,0,3.127,12a1.087,1.087,0,0,0,.441-.094l2.8-1.248a.322.322,0,0,1,.26,0l2.8,1.248a1.066,1.066,0,0,0,1.052-.1.979.979,0,0,0,.424-.934l-.367-2.95a.289.289,0,0,1,.081-.238Z" fill="url(#linear-gradient)"/>
</svg>
